<?xml version="1.0" encoding="utf-8"?>
<!-- Generator: Adobe Illustrator 13.0.0, SVG Export Plug-In . SVG Version: 6.00 Build 14948)  -->
<!DOCTYPE svg PUBLIC "-//W3C//DTD SVG 1.1//EN" "http://www.w3.org/Graphics/SVG/1.1/DTD/svg11.dtd">
<svg version="1.1" id="Layer_1" xmlns="http://www.w3.org/2000/svg" xmlns:xlink="http://www.w3.org/1999/xlink" x="0px" y="0px"
	 width="889.928px" height="840.502px" viewBox="0 0 889.928 840.502" enable-background="new 0 0 889.928 840.502"
	 xml:space="preserve">
<g>
	<path fill="#D82323" d="M563.233,577.149l-10.47-0.002v-27.305c-0.008-1.771-0.271-3.229-1.046-4.391
		c-0.7-1.082-1.933-1.804-3.229-1.775c-1.296-0.029-2.523,0.716-3.202,1.809c-0.749,1.158-1.007,2.605-1.013,4.357v30.304
		c0.012,1.855,0.263,3.343,1.085,4.513c0.835,1.174,2.254,1.708,3.735,1.708c0.026,0,0.054,0,0.082,0h14.058
		c1.219,0.016,2.436-0.436,3.203-1.382c0.732-0.878,1.059-2.015,1.053-3.2c0.007-1.18-0.331-2.313-1.049-3.199
		C565.685,577.618,564.458,577.127,563.233,577.149z M573.096,543.676c-1.293-0.028-2.506,0.72-3.188,1.803
		c-0.758,1.159-1.021,2.609-1.025,4.363l-0.002,31.003h0.002c0.004,1.753,0.271,3.211,1.036,4.376
		c0.683,1.081,1.884,1.841,3.178,1.815c0.024,0,0.05,0,0.074,0c1.273,0,2.477-0.728,3.159-1.797
		c0.771-1.163,1.034-2.625,1.042-4.395v-31.003c-0.008-1.77-0.27-3.229-1.046-4.389C575.625,544.37,574.393,543.648,573.096,543.676
		z M601.94,577.364h-12.234v-8.525h10.745c1.159,0.02,2.349-0.419,3.058-1.37c0.646-0.841,0.926-1.896,0.924-2.997
		c0.002-1.105-0.282-2.165-0.952-2.997c-0.721-0.917-1.886-1.335-3.029-1.316h-10.745v-6.997h11.785
		c1.176,0.018,2.37-0.404,3.108-1.346c0.683-0.85,0.974-1.938,0.97-3.076c0.004-1.122-0.291-2.202-0.97-3.046
		c-0.738-0.941-1.932-1.363-3.108-1.346h-15.375c-0.997,0-1.938,0.2-2.735,0.698c-0.831,0.516-1.407,1.347-1.721,2.284
		c-0.317,0.93-0.444,1.995-0.445,3.235v29.581c0.01,1.856,0.264,3.344,1.085,4.513c0.852,1.196,2.307,1.726,3.816,1.707h15.824
		c0.024,0,0.049,0.001,0.071,0.001c1.158,0,2.321-0.45,3.04-1.376c0.689-0.857,0.993-1.956,0.988-3.1
		c0.004-1.171-0.291-2.283-0.988-3.154C604.317,577.793,603.121,577.344,601.94,577.364z M631.294,567.807
		c-1.163-0.044-2.384,0.607-2.929,1.662c-0.448,0.801-0.782,1.748-1.051,2.861c-0.548,2.042-1.335,3.476-2.261,4.381
		c-0.934,0.9-1.937,1.309-3.31,1.322c-1.255-0.008-2.23-0.374-3.163-1.176c-0.9-0.781-1.69-2.061-2.271-3.937
		c-0.571-1.851-0.882-4.274-0.88-7.242c-0.004-4.448,0.704-7.769,1.954-9.943c1.303-2.206,2.661-3.025,4.556-3.057
		c1.22,0.011,2.086,0.354,2.879,1.086c0.82,0.767,1.639,2.053,2.349,3.888c0.484,1.239,0.911,2.141,1.432,2.827
		c0.637,0.854,1.716,1.266,2.733,1.243c1.166,0.021,2.213-0.699,2.812-1.634c0.626-0.922,0.938-2.022,0.934-3.162
		c0-1.926-0.56-3.904-1.601-5.914c-1.066-2.064-2.619-3.809-4.596-5.189c-2.036-1.431-4.412-2.152-6.98-2.147
		c-2.127-0.003-4.166,0.527-6.037,1.562c-1.881,1.037-3.505,2.545-4.857,4.465c-1.359,1.932-2.384,4.223-3.091,6.853
		c-0.709,2.641-1.054,5.594-1.054,8.855c0,2.012,0.137,3.923,0.417,5.732c0.278,1.81,0.699,3.522,1.265,5.137
		c0.563,1.609,1.25,3.079,2.064,4.403c0.915,1.467,1.937,2.678,3.083,3.62c1.14,0.938,2.425,1.637,3.827,2.08
		c1.391,0.439,2.907,0.653,4.54,0.653h0.014c2.188,0,4.188-0.49,5.913-1.498c1.662-0.967,3.056-2.252,4.132-3.816
		c1.035-1.503,1.809-3.057,2.304-4.658c0.481-1.562,0.736-3.046,0.736-4.461c0.004-1.202-0.318-2.35-1.013-3.27
		C633.499,568.432,632.433,567.788,631.294,567.807z M660.375,543.676c-1.297-0.029-2.525,0.716-3.204,1.81
		c-0.749,1.157-1.006,2.604-1.013,4.356v9.938h-9.902v-9.938c-0.008-1.771-0.271-3.229-1.045-4.389
		c-0.7-1.084-1.934-1.806-3.229-1.777c-1.306-0.034-2.56,0.711-3.231,1.822c-0.729,1.157-0.978,2.596-0.985,4.344v31.001
		c0.007,1.75,0.263,3.196,0.996,4.358c0.672,1.108,1.913,1.866,3.221,1.834c1.296,0.028,2.52-0.708,3.22-1.789
		c0.78-1.165,1.048-2.631,1.055-4.403v-11.898h9.902v11.898c0.007,1.75,0.262,3.196,0.994,4.358c0.66,1.088,1.865,1.835,3.144,1.835
		c0.027,0,0.052,0,0.079-0.001c1.296,0.028,2.519-0.708,3.219-1.789c0.779-1.165,1.049-2.631,1.056-4.403v-31.001
		c-0.008-1.771-0.271-3.23-1.046-4.389C662.903,544.37,661.67,543.648,660.375,543.676z M688.236,544.348h-18.51
		c-1.215-0.019-2.425,0.422-3.201,1.354c-0.76,0.888-1.077,2.053-1.074,3.281c-0.003,1.193,0.305,2.329,1.021,3.212
		c0.773,0.977,2.013,1.412,3.255,1.396h5.019l0.001,27.252c0.007,1.771,0.271,3.233,1.041,4.396
		c0.692,1.086,1.918,1.824,3.214,1.797c0.022,0,0.046,0.001,0.07,0.001c1.26,0,2.44-0.73,3.114-1.784
		c0.769-1.163,1.025-2.624,1.031-4.41v-27.252h5.02l0,0c1.243,0.016,2.48-0.42,3.263-1.384c0.734-0.881,1.058-2.025,1.053-3.225
		c0.004-1.199-0.313-2.338-1.031-3.227C690.742,544.773,689.492,544.33,688.236,544.348z M714.061,577.363h-12.236v-8.524h10.745
		c1.16,0.02,2.35-0.419,3.061-1.371c0.645-0.838,0.924-1.895,0.921-2.996c0.004-1.105-0.282-2.166-0.95-2.995
		c-0.722-0.919-1.887-1.337-3.031-1.318l-10.745-0.001v-6.996h11.784c1.179,0.018,2.372-0.404,3.11-1.345
		c0.684-0.851,0.974-1.938,0.968-3.074c0.006-1.125-0.289-2.204-0.968-3.049c-0.738-0.94-1.931-1.364-3.11-1.346h-15.372
		c-0.999,0-1.939,0.202-2.736,0.698c-0.831,0.516-1.407,1.347-1.722,2.283c-0.316,0.93-0.442,1.996-0.444,3.236v29.581
		c0.011,1.855,0.264,3.344,1.085,4.512c0.85,1.196,2.307,1.727,3.817,1.708h15.824c0.025,0.001,0.05,0.001,0.075,0.001
		c1.154,0,2.317-0.451,3.035-1.375c0.689-0.859,0.992-1.957,0.987-3.1c0.005-1.172-0.29-2.283-0.987-3.155
		C716.438,577.793,715.241,577.344,714.061,577.363z M742.884,543.676c-1.247-0.031-2.438,0.706-3.061,1.764
		c-0.685,1.112-0.913,2.477-0.921,4.133v17.576l-8.653-17.928c-0.315-0.681-0.618-1.332-0.913-1.958
		c-0.318-0.678-0.638-1.253-0.984-1.739c-0.372-0.52-0.826-0.964-1.359-1.297c-0.613-0.384-1.333-0.554-2.049-0.551
		c-1.017-0.008-1.992,0.419-2.749,1.101c-0.769,0.677-1.317,1.572-1.625,2.579c-0.269,0.956-0.37,2.063-0.372,3.425v30.359
		c0.005,1.629,0.254,2.999,0.954,4.113c0.628,1.048,1.793,1.784,3.028,1.784c0.026,0,0.051,0,0.076-0.001
		c1.25,0.027,2.42-0.71,3.072-1.752c0.729-1.113,0.98-2.498,0.987-4.145v-17.157l8.384,17.596c0.33,0.658,0.646,1.278,0.964,1.884
		c0.35,0.668,0.735,1.268,1.169,1.797c0.459,0.562,0.995,1.024,1.619,1.333c0.616,0.303,1.305,0.444,2.002,0.443
		c1.41,0.039,2.793-0.709,3.494-1.938c0.719-1.208,0.969-2.717,0.976-4.575v-30.95c-0.007-1.658-0.241-3.026-0.933-4.138
		C745.353,544.368,744.14,543.642,742.884,543.676z M771.805,563.836c-1.038-1.008-2.284-1.849-3.708-2.528
		c-1.378-0.657-2.9-1.251-4.569-1.785c-1.253-0.434-2.171-0.771-2.682-0.982c-0.448-0.185-0.905-0.447-1.376-0.8
		c-0.41-0.31-0.703-0.649-0.926-1.051c-0.188-0.345-0.306-0.786-0.307-1.399c0.014-0.945,0.294-1.615,0.982-2.31
		c0.661-0.634,1.459-0.962,2.704-0.975c1.416,0.007,2.141,0.354,2.527,0.796c0.577,0.653,1.145,1.662,1.626,3.039l0.008,0.02
		l0.008,0.022c0.434,1.099,0.827,1.921,1.308,2.563c0.593,0.812,1.624,1.234,2.582,1.211c1.227,0.023,2.339-0.738,2.954-1.753
		c0.631-0.971,0.951-2.106,0.948-3.284c0.001-1.208-0.229-2.429-0.666-3.646c-0.453-1.26-1.164-2.444-2.105-3.543
		c-0.979-1.147-2.216-2.062-3.656-2.731c-1.501-0.698-3.228-1.023-5.142-1.023c-2.388-0.003-4.551,0.493-6.41,1.522
		c-1.856,1.021-3.316,2.536-4.286,4.437c-0.972,1.892-1.442,4.04-1.441,6.38c0,2.428,0.435,4.556,1.383,6.332
		c0.913,1.714,2.187,3.112,3.775,4.121c1.516,0.964,3.348,1.778,5.494,2.467c1.516,0.474,2.703,0.916,3.54,1.308
		c0.726,0.339,1.278,0.8,1.733,1.433c0.38,0.532,0.621,1.289,0.623,2.405c-0.013,1.357-0.402,2.317-1.236,3.187
		c-0.832,0.831-1.806,1.236-3.252,1.25c-1.07,0-1.785-0.23-2.27-0.573c-0.602-0.429-1.042-0.94-1.375-1.594
		c-0.374-0.74-0.746-1.717-1.096-2.913c-0.332-1.147-0.733-2.089-1.323-2.842c-0.597-0.79-1.588-1.332-2.604-1.312
		c-1.179-0.025-2.31,0.633-2.958,1.594c-0.667,0.932-0.988,2.069-0.983,3.257c0,1.883,0.466,3.794,1.351,5.7
		c0.886,1.916,2.07,3.506,3.557,4.705c2.107,1.683,4.778,2.496,7.824,2.496h0.035c2.563,0.003,4.882-0.588,6.841-1.813
		c1.94-1.2,3.442-2.908,4.433-5.018c0.988-2.093,1.473-4.438,1.471-6.984c-0.001-2.101-0.27-3.934-0.859-5.503
		C773.707,566.194,772.881,564.88,771.805,563.836z M797.415,544.347h-18.509c-1.215-0.018-2.425,0.424-3.203,1.354
		c-0.759,0.888-1.077,2.053-1.072,3.281c-0.005,1.193,0.304,2.329,1.021,3.212c0.771,0.976,2.012,1.413,3.254,1.396h5.018v27.254
		c0.009,1.77,0.272,3.23,1.043,4.396c0.691,1.085,1.917,1.823,3.213,1.795c0.023,0.001,0.046,0.001,0.069,0.001
		c1.261,0,2.442-0.729,3.115-1.783c0.768-1.163,1.023-2.624,1.032-4.408v-27.254h5.019l0,0c1.243,0.016,2.48-0.42,3.264-1.384
		c0.733-0.881,1.057-2.025,1.051-3.225c0.006-1.199-0.311-2.338-1.03-3.227C799.919,544.773,798.671,544.33,797.415,544.347z
		 M823.24,577.364h-12.235v-8.525h10.744c1.16,0.02,2.35-0.419,3.059-1.371c0.646-0.838,0.927-1.896,0.923-2.996
		c0.004-1.105-0.281-2.166-0.95-2.995c-0.72-0.918-1.887-1.337-3.031-1.319h-10.744v-6.996h11.784
		c1.178,0.018,2.371-0.404,3.11-1.346c0.682-0.851,0.971-1.938,0.968-3.073c0.004-1.125-0.29-2.205-0.968-3.049
		c-0.738-0.941-1.932-1.364-3.11-1.345h-15.373c-0.998-0.002-1.939,0.201-2.737,0.699c-0.831,0.514-1.407,1.346-1.722,2.281
		c-0.315,0.93-0.442,1.996-0.444,3.237v29.58c0.011,1.855,0.265,3.344,1.085,4.513c0.851,1.196,2.306,1.728,3.818,1.708h15.824
		c0.024,0,0.048,0,0.072,0c1.156,0,2.32-0.451,3.039-1.376c0.688-0.858,0.99-1.954,0.987-3.099c0.003-1.172-0.291-2.284-0.987-3.155
		C825.615,577.793,824.419,577.344,823.24,577.364z M833.75,543.676c-1.293-0.027-2.507,0.72-3.189,1.803
		c-0.757,1.16-1.021,2.609-1.027,4.363l-0.001,31.001h0.001c0.007,1.755,0.274,3.214,1.038,4.378
		c0.683,1.08,1.885,1.841,3.179,1.815c0.022,0.001,0.046,0.001,0.07,0.001c1.276,0,2.479-0.726,3.163-1.797
		c0.77-1.165,1.033-2.626,1.042-4.397v-31.001c-0.009-1.77-0.271-3.229-1.046-4.389C836.279,544.371,835.045,543.648,833.75,543.676
		z M867.739,545.436c-0.639-1.068-1.852-1.794-3.105-1.76c-1.249-0.031-2.44,0.706-3.063,1.764
		c-0.684,1.112-0.912,2.477-0.919,4.133v17.575L852,549.228l0,0c-0.314-0.681-0.618-1.337-0.915-1.966
		c-0.318-0.677-0.639-1.252-0.984-1.738c-0.37-0.521-0.827-0.964-1.359-1.296c-0.614-0.385-1.332-0.555-2.051-0.552
		c-1.015-0.008-1.991,0.419-2.747,1.101c-0.769,0.677-1.317,1.572-1.625,2.579c-0.27,0.956-0.37,2.063-0.373,3.426v30.358
		c0.005,1.627,0.254,2.999,0.954,4.111c0.627,1.049,1.794,1.786,3.03,1.786c0.025,0,0.051,0,0.075-0.001
		c1.249,0.027,2.42-0.709,3.073-1.752c0.726-1.113,0.98-2.498,0.987-4.145v-17.159l8.382,17.599c0.33,0.657,0.647,1.277,0.963,1.883
		c0.351,0.668,0.737,1.268,1.172,1.797c0.458,0.56,0.994,1.024,1.619,1.331c0.616,0.305,1.302,0.447,2,0.445
		c1.412,0.039,2.793-0.709,3.494-1.938c0.72-1.208,0.97-2.718,0.979-4.575v-30.95C868.665,547.915,868.43,546.546,867.739,545.436z"
		/>
	<path fill="#D82323" d="M410.271,39.085c-5.651,0-10.23,4.581-10.23,10.233v33.68h-20.443V49.317
		c0-5.651-4.583-10.231-10.231-10.231c-5.651,0-10.232,4.58-10.232,10.231v93.842c0,5.649,4.581,10.231,10.232,10.231
		c5.648,0,10.231-4.583,10.231-10.231V103.46h20.443v39.699c0,5.65,4.579,10.23,10.23,10.23c5.65,0,10.232-4.58,10.232-10.23V49.318
		C420.504,43.666,415.922,39.085,410.271,39.085z M452.381,39.084c-5.65,0-10.232,4.582-10.232,10.231v93.844
		c0,5.65,4.582,10.23,10.232,10.23c5.649,0,10.231-4.58,10.231-10.23V49.316C462.613,43.667,458.031,39.084,452.381,39.084z
		 M540.211,143.159c0-5.652-4.58-10.23-10.229-10.23l-25.865-0.002v-83.61c0-5.649-4.581-10.23-10.23-10.23
		c-5.651,0-10.23,4.581-10.23,10.23h-0.002v93.843c0,2.693,1.093,5.328,2.998,7.234c1.906,1.906,4.538,2.997,7.234,2.997h36.096
		C535.631,153.39,540.211,148.809,540.211,143.159z M554.043,153.392c5.648,0,10.232-4.582,10.232-10.233h-0.003v-39.697h19.848
		c5.65,0,10.231-4.581,10.231-10.23c0-5.651-4.581-10.232-10.231-10.232h-19.848V59.548h26.464c5.65,0,10.23-4.582,10.23-10.23
		c0-5.652-4.58-10.233-10.23-10.233h-36.693c-2.698,0-5.331,1.093-7.237,2.998c-1.903,1.904-2.996,4.542-2.996,7.235v93.841
		C543.81,148.811,548.39,153.392,554.043,153.392z M624.887,102.427c7.82,5.042,12.434,9.709,14.957,13.443
		c2.523,3.766,3.092,6.48,3.113,8.649c0.015,2.838-1.213,5.321-2.733,7.048c-0.369,0.444-1.616,1.438-3.235,2.117
		c-1.619,0.707-3.571,1.148-5.385,1.143c-2.603-0.048-4.758-0.679-7.036-2.697c-2.253-2.044-4.932-6.029-6.566-13.895
		c-1.14-5.535-6.552-9.097-12.083-7.957c-5.535,1.14-9.098,6.551-7.957,12.086c2.229,10.877,6.629,19.27,12.858,24.921
		c6.139,5.617,13.772,8.002,20.58,8.002c0.067,0,0.135,0,0.204,0c4.91-0.005,9.474-1.085,13.5-2.818
		c4.027-1.761,7.556-4.122,10.436-7.335c4.273-4.826,7.864-11.924,7.881-20.615c0.023-6.483-2.121-13.518-6.642-20.134
		c-4.521-6.65-11.281-13-20.788-19.147c-5.094-3.287-8.172-6.516-9.907-9.212c-1.738-2.719-2.22-4.861-2.232-6.664
		c0.011-2.47,0.981-4.659,2.835-6.531c1.85-1.847,4.528-3.125,7.42-3.302c0.38-0.025,0.736-0.038,1.097-0.038
		c2.587,0.023,3.964,0.563,5.088,1.207c1.633,0.943,2.923,2.673,3.76,4.467c0.411,0.873,0.687,1.698,0.837,2.228
		c0.071,0.257,0.116,0.443,0.137,0.532c0.005,0.029,0.009,0.046,0.01,0.053c0.99,5.501,6.222,9.198,11.751,8.276
		c5.574-0.928,9.337-6.2,8.411-11.772l-0.002-0.003c-0.174-0.817-1.027-6.251-5.145-12.474c-2.071-3.087-5.074-6.385-9.305-8.897
		c-4.207-2.528-9.589-4.099-15.542-4.079c-0.782,0-1.599,0.025-2.446,0.083c-7.903,0.517-15.136,3.89-20.494,9.205
		c-5.354,5.287-8.886,12.77-8.875,21.046c-0.013,5.958,1.857,12.138,5.501,17.759C612.532,92.76,617.863,97.886,624.887,102.427z
		 M649.256,172.849c-5.372-1.754-11.148,1.18-12.9,6.55l-18.928,57.98l-15.196-57.423c-1.188-4.479-5.215-7.594-9.851-7.611
		c-4.632-0.021-8.687,3.06-9.906,7.531l-15.99,58.467l-19.786-59.019c-1.798-5.358-7.594-8.245-12.952-6.45
		c-5.356,1.797-8.244,7.596-6.447,12.953l30.479,90.92c1.4,4.184,5.306,6.979,9.694,6.979c0.098,0,0.196-0.002,0.295-0.004
		c4.509-0.126,8.391-3.176,9.58-7.529l14.831-54.238l14.333,54.158c1.163,4.39,5.062,7.48,9.601,7.609
		c4.543,0.128,8.608-2.735,10.019-7.052l29.676-90.92C657.56,180.378,654.627,174.604,649.256,172.849z M704.897,192.805
		c5.652,0,10.233-4.58,10.233-10.23c0-5.65-4.581-10.231-10.233-10.231h-31.546c-2.695,0-5.329,1.09-7.235,2.997
		c-1.902,1.906-2.996,4.54-2.996,7.234v90.919c0,2.694,1.094,5.332,2.996,7.235c1.906,1.906,4.54,2.999,7.235,2.999h31.546
		c5.652,0,10.233-4.583,10.233-10.233c0-5.65-4.581-10.23-10.233-10.23h-21.314v-24.052h21.314c5.652,0,10.233-4.58,10.233-10.23
		c0-5.651-4.581-10.233-10.233-10.233h-21.314v-25.943H704.897z M769.189,242.002c2.776-0.961,5.603-2.343,8.353-4.319
		c3.757-2.727,7.139-6.676,9.359-11.592c2.24-4.916,3.357-10.662,3.357-17.163c0.022-7.521-1.884-14.295-5.334-19.658
		c-5.205-8.125-13.104-12.405-20.229-14.625c-7.213-2.241-14.093-2.683-19.232-2.699c-4.89,0.003-8.199,0.448-8.539,0.494
		c-5.078,0.697-8.839,5.011-8.839,10.136v90.918c0,5.652,4.581,10.233,10.235,10.233c5.647,0,10.23-4.582,10.23-10.233h-0.002
		V249.73l27.924,30.654c3.805,4.178,10.273,4.479,14.454,0.675c4.176-3.808,4.479-10.276,0.674-14.454L769.189,242.002z
		 M763.542,222.258c-2.136,0.96-5.146,1.408-7.877,1.392c-1.814,0-3.473-0.171-4.606-0.337c-0.569-0.085-1.007-0.163-1.27-0.218
		c-0.126-0.023-0.213-0.043-0.254-0.052c-0.328-0.079-0.657-0.142-0.986-0.188v-30.372c4.657,0.266,10.172,1.238,13.93,3.273
		c2.352,1.24,4.009,2.675,5.198,4.525c1.166,1.868,2.092,4.349,2.117,8.646c-0.002,4.196-0.712,6.914-1.515,8.68
		C767.03,220.201,765.711,221.228,763.542,222.258z M868.889,266.938l-34.663-41.521l30.623-36.367
		c3.641-4.323,3.087-10.777-1.235-14.416c-4.321-3.639-10.777-3.085-14.416,1.235l-26.857,31.895v-25.188
		c0-5.651-4.583-10.232-10.231-10.232c-5.651,0-10.231,4.581-10.231,10.232v90.918c0,5.651,4.58,10.232,10.231,10.232
		c5.648,0,10.231-4.581,10.231-10.232v-30.388l30.842,36.946c2.022,2.423,4.93,3.674,7.857,3.674c2.313,0,4.637-0.779,6.552-2.376
		C871.929,277.728,872.507,271.276,868.889,266.938z"/>
	<g>
		<polygon fill="#D82323" points="0,354.891 152.885,202.005 211.76,202.005 211.76,219.059 159.948,219.059 12.059,366.948 
			12.059,366.95 0,354.891 		"/>
	</g>
	<g>
		<path fill="#D82323" d="M274.562,495.221c-22.044-9.924-37.447-23.569-47.893-37.722l0,0
			c-20.907-28.389-22.231-58.033-22.263-66.032l0,0c0-0.878,0.017-1.502,0.03-1.848l0,0V151.679L354.891,0v0.002l12.105,12.006
			L221.49,158.699v231.337l-0.013,0.22c-0.002,0.035-0.005,0.104-0.007,0.207l0,0c-0.005,0.205-0.013,0.544-0.013,1.005l0,0
			c-0.012,4.477,0.668,20.339,8.503,37.953l0,0c7.889,17.642,22.505,37.073,51.611,50.255l0,0
			c19.435,8.76,45.517,14.683,80.576,14.687l0,0v17.05C325.189,511.414,296.608,505.159,274.562,495.221L274.562,495.221z"/>
	</g>
	<g>
		<path fill="#D82323" d="M364.555,586.003v-8.525h8.524h-8.524V586.003h-8.527V202.162l8.369-0.153
			c0.05-0.002,0.294-0.004,0.716-0.004l0,0c4.096,0.009,25.203,0.324,50.487,7.374l0,0c25.213,7.055,54.996,20.929,75.074,48.9l0,0
			c13.362,18.61,21.997,43.336,21.964,74.972l0,0c0,125.123,0,244.228,0,244.228l0,0v8.525H364.555L364.555,586.003z
			 M495.588,568.952c0-29.383,0-130.412,0-235.702l0,0c-0.033-28.612-7.576-49.347-18.777-65.044l0,0
			c-11.221-15.672-26.391-26.409-42.201-33.77l0,0c-23.799-11.131-48.865-14.245-61.531-15.085l0,0v349.601H495.588L495.588,568.952
			z"/>
	</g>
	<g>
		<polygon fill="#D82323" points="506.519,513.818 506.519,496.766 573.79,496.766 573.79,371.854 507.723,371.854 507.723,354.8 
			590.84,354.8 590.84,513.818 506.519,513.818 		"/>
	</g>
	<g>
		<path fill="#D82323" d="M317.443,765.264l-8.337-0.188V656.74l51.929-79.127h0.002l14.252,9.354l-49.131,74.868v85.699
			c1.315-0.212,2.71-0.488,4.124-0.85l0,0c5.541-1.37,10.988-4.024,13.928-7.846l0,0c1.984-2.58,3.352-5.686,3.397-10.973l0,0h17.05
			c0.046,8.636-2.713,16.101-7.069,21.547l0,0c-4.338,5.476-9.912,8.932-15.257,11.189l0,0c-10.735,4.468-21.038,4.627-24.096,4.668
			l0,0C317.775,765.271,317.502,765.264,317.443,765.264L317.443,765.264z"/>
	</g>
	<g>
		<polygon fill="#D82323" points="347.606,785.616 347.606,667.71 364.658,667.71 364.658,785.616 347.606,785.616 		"/>
	</g>
	<g>
		<path fill="#D82323" d="M338.775,819.943c-4.745-3.95-6.895-8.954-8.707-14.259l0,0c-1.735-5.344-2.831-11.217-3.61-17.104l0,0
			c-1.54-11.748-1.738-23.534-1.743-29.436l0,0c0-2.358,0.033-3.765,0.036-3.825l0,0l17.046,0.434
			c0.002,0.004-0.031,1.204-0.031,3.392l0,0c-0.003,4.102,0.115,11.454,0.763,19.308l0,0c0.63,7.833,1.87,16.246,3.752,21.945l0,0
			c1.163,3.819,2.877,6.171,3.145,6.229l0,0c0.589,0.479,1.785,1.021,4.081,1.031l0,0c4.338,0.092,11.625-2.483,17.717-7.141l0,0
			c6.18-4.593,11.125-11.014,12.789-17.185l0,0c3.9-13.856,4.634-34.563,4.598-44.916l0,0c0-2.083-0.026-3.762-0.046-4.909l0,0
			c-0.025-1.148-0.046-1.721-0.046-1.721l0,0l17.041-0.625c0.003,0.085,0.103,2.831,0.103,7.255l0,0
			c-0.039,11.118-0.529,32.395-5.22,49.479l0,0c-3.114,11.004-10.51,19.867-18.988,26.265l0,0
			c-8.565,6.337-18.251,10.454-27.946,10.549l0,0c-0.021,0-0.04,0-0.06,0l0,0C348.439,824.71,343.144,823.43,338.775,819.943
			L338.775,819.943z"/>
	</g>
	<g>
		<path fill="#D82323" d="M395.835,839.857c-6.93,0.002-12.639-1.125-17.3-3.144l0,0c-4.662-2.005-8.181-4.95-10.513-8.003l0,0
			c-4.689-6.191-4.746-11.992-4.774-13.018l0,0h17.051l-3.649-0.002l3.642-0.288l0,0l0,0c0,0.001,0,0.002,0,0.007l0,0
			c0.002,0.021,0.011,0.106,0.033,0.235l0,0c0.054,0.303,0.185,0.837,0.458,1.424l0,0c0.61,1.174,1.414,2.585,4.53,3.997l0,0
			c2.106,0.912,5.421,1.74,10.522,1.74l0,0c5.901,0.038,12.091-3.183,17.819-8.999l0,0c5.667-5.729,10.422-13.751,13.108-20.991l0,0
			c1.816-4.796,2.681-9.301,2.655-12.011l0,0c0-16.847,0-44.474,0-44.517l0,0h17.053c0,0.043,0,27.67,0,44.517l0,0
			c-0.077,8.508-3.057,17.966-7.97,27.377l0,0c-4.974,9.329-11.949,18.433-21.168,24.694l0,0c-6.124,4.14-13.44,6.98-21.475,6.98
			l0,0C395.85,839.857,395.842,839.857,395.835,839.857L395.835,839.857z"/>
	</g>
	<g>
		<path fill="#D82323" d="M414.739,833.311l10.314-13.58c3.899,2.921,6.794,3.695,9.344,3.722l0,0
			c2.387-0.007,4.845-0.764,7.619-2.506l0,0c2.748-1.731,5.657-4.46,8.37-7.837l0,0c5.452-6.732,10.035-15.978,12.614-23.602l0,0
			c1.753-5.012,2.56-9.564,2.511-11.113l0,0c0-15.641,0-44.469,0-44.515l0,0h17.05c0,0.046,0,28.874,0,44.515l0,0
			c-0.023,3.759-0.78,7.65-2.009,12.09l0,0c-1.239,4.406-3.006,9.228-5.257,14.141l0,0c-4.541,9.813-10.857,20.017-19.553,27.352
			l0,0c-5.77,4.84-13.009,8.517-21.345,8.524l0,0c-0.037,0.001-0.074,0.001-0.112,0.001l0,0
			C427.651,840.502,420.862,838,414.739,833.311L414.739,833.311z"/>
	</g>
	<g>
		<path fill="#D82323" d="M455.295,827.245l6.203-15.883c1.556,0.601,2.99,0.854,4.489,0.858l0,0
			c2.757,0.005,5.926-0.94,9.446-3.059l0,0c3.501-2.1,7.215-5.33,10.72-9.264l0,0c7.039-7.846,13.197-18.47,16.758-27.387l0,0
			c2.411-5.872,3.567-11.235,3.503-13.363l0,0c0-18.047,0-57.75,0-87.827l0,0c0.023-5.21-1.382-12.646-3.781-20.693l0,0
			c-2.384-8.07-5.703-16.82-9.244-25.174l0,0c-7.082-16.717-15.042-31.856-18.188-37.667l0,0c-0.897-1.663-1.385-2.532-1.387-2.535
			l0,0l0.002,0.003l14.876-8.333c0.119,0.261,19.203,34.182,29.105,65.013l0,0c3.282,10.344,5.635,20.309,5.668,29.387l0,0
			c0,30.077,0,69.78,0,87.827l0,0c-0.03,4.582-1.105,9.269-2.797,14.451l0,0c-1.708,5.152-4.105,10.683-7.071,16.254l0,0
			c-5.967,11.122-14.064,22.403-24.127,30.299l0,0c-6.695,5.204-14.57,9.089-23.483,9.12l0,0c-0.015,0-0.027,0-0.043,0l0,0
			C462.407,829.272,458.778,828.608,455.295,827.245L455.295,827.245z"/>
	</g>
</g>
<g>
	<path fill="#D82323" d="M652.004,516.199h-0.012h-0.012c-13.895-0.193-31.023-8.038-45.944-15.687
		c-14.61-7.622-26.229-15.156-26.317-15.217c-1.644-1.067-2.796-2.735-3.191-4.674c-0.398-1.936,0.006-3.907,1.139-5.548
		c1.402-2.055,3.766-3.286,6.315-3.286c1.497,0,2.951,0.428,4.2,1.238l-0.009-0.003c0.102,0.061,0.212,0.13,0.342,0.213
		c4.563,2.896,13.834,8.597,24.67,14.252c12.144,6.43,29.498,13.936,38.468,13.936l0.317-0.002h2.791
		c25.833,0,49.247-0.495,69.588-1.472c34.228-1.472,62.482-5.299,70.318-9.521c21.664-11.049,31.96-19.68,41.558-30.033
		c3.993-4.396,6.163-8.612,7.229-14.309c-15.488,11.317-31.395,20.154-39.622,23.237c-12.625,4.187-36.849,4.367-49.863,4.467
		c-3.555,0-6.166-0.035-7.559-0.058l-1.475-0.021v-1.437v-11.852v-1.48l1.52,0.022c1.27,0.018,3.903,0.053,7.502,0.053
		c0.646,0.004,1.313,0.006,2.006,0.006c15.864,0,35.998-1.128,42.715-3.601c12.28-3.813,55.455-32.769,62.933-46.976
		c4.391-7.664,6.691-14.58,6.678-20.047c-0.026-2.12-0.366-3.973-1.056-5.688c-7.326,7.517-17.84,18.13-29.266,28.707
		c-22.664,21.116-38.227,24.833-49.254,25.712c-3.64,0.312-8.861,0.456-16.42,0.456c-12.513,0-25.788-0.427-25.912-0.432
		l-1.445-0.051v-1.408v-11.82v-1.157l1.247-0.277c0.069-0.015,0.234-0.053,0.441-0.053h0.022l0.114,0.003
		c2.325,0.069,14.484,0.423,25.532,0.423c6.719,0,12.076-0.147,15.085-0.411c8.892-0.863,20.069-3.324,40.134-21.708
		c14.243-13.165,26.981-26.339,35.41-35.056c3.484-3.601,6.235-6.446,8.099-8.266l0.1-0.096l0.045-0.031
		c0.592-0.672,2.17-4.211,2.051-7.525c-0.479-5.368-1.38-8.839-9.391-10.195c-1.128,2.458-2.501,4.536-4.178,6.33
		c-2.177,2.289-4.099,4.431-5.956,6.5c-5.744,6.397-11.167,12.44-22.365,20.979c-1.282,0.968-2.559,1.944-3.84,2.924
		c-13.003,9.948-26.447,20.232-44.488,20.396c-11.842-0.008-28.023-0.525-36.617-0.832l-1.445-0.052v-1.406V382.5v-1.516
		l1.556,0.057c6.865,0.25,24.163,0.833,36.493,0.833l0.371,0.002c12.574,0,24.627-9.339,38.587-20.15
		c10.132-7.769,14.527-12.661,20.092-18.853c1.951-2.173,3.968-4.417,6.436-7.022c1.742-1.817,2.779-4.796,2.779-7.972
		c0.009-2.879-0.927-5.944-2.386-7.812c-1.47-1.835-2.758-2.512-4.911-2.566c-1.785,0-5.635,0.698-11.493,5.37
		c-3.001,2.299-6.032,4.739-9.24,7.321c-14.2,11.424-30.294,24.372-45.742,25.942c-3.507,0.243-10.928,0.657-22.104,1.237
		l-0.041,0.002l-0.11,0.015c-0.038,0-0.076-0.002-0.11-0.004c-24.021,1.254-58.743,2.945-72.574,3.613l-1.574,0.075v-1.533v-11.873
		v-1.389l1.425-0.07c10.44-0.503,46.411-2.249,71.378-3.555c10.525-1.675,14.645-7.503,17.289-12.985
		c1.632-3.53,2.463-7.317,2.886-10.268c-16.071-0.376-77.146-1.785-91.482-1.785c-14.521,0-25.973,6.476-40.572,15.625
		c-13.726,8.57-52.057,36.037-52.38,36.273c-1.34,0.961-2.896,1.461-4.522,1.461c-2.404,0-4.688-1.122-6.111-3.003
		c-2.48-3.292-1.76-7.93,1.605-10.341l0.394-0.285c9.152-6.544,40.007-28.523,52.814-36.537
		c13.463-8.412,28.722-17.948,48.771-17.97c15.877,0.009,90.308,1.64,105.066,1.966l0.585,0.014l1.479,0.028l-0.009,1.441
		c-0.031,4.554-0.461,20.13-4.647,29.381c-0.593,1.345-1.283,2.677-2.069,3.986c11.234-4.796,28.256-18.668,39.976-28.217
		c7.253-5.756,14.365-8.682,21.149-8.706l0.171-0.002c6.645,0,12.977,3.204,16.936,8.57c2.834,3.767,4.588,8.456,5.094,13.614
		c14.696,2.023,22.82,14.033,22.21,24.839c-0.135,7.455-2.418,13.712-6.598,18.04c-0.913,0.887-2.158,2.153-3.588,3.618
		c3.5,4.98,5.314,10.83,5.259,16.998c-0.019,8.187-2.818,17.076-8.563,27.168c-3.143,5.208-8.279,11.056-15.295,17.418
		c0.029,12.41-1.011,25.47-12.11,37.289c-8.566,9.304-20.712,20.535-45.778,33.223c-13.662,6.661-40.507,9.291-76.615,11.194
		C694.026,516.199,663.497,516.199,652.004,516.199L652.004,516.199z"/>
	<path fill="#D82323" d="M844.163,304.192c6.695,0,12.373,3.437,15.712,7.96c3.09,4.104,4.612,9.043,4.911,14.067
		c15.532,1.5,22.658,13.795,22.113,23.452c-0.126,6.819-2.053,12.834-6.193,17.124c-1.065,1.031-2.637,2.639-4.435,4.485
		c3.749,4.886,5.755,10.825,5.699,17.117c-0.018,8.232-2.992,17.015-8.375,26.475c-3.366,5.575-8.912,11.578-15.485,17.493
		c0.069,13.615-1.285,25.829-11.715,36.938c-9.436,10.247-21.516,20.84-45.364,32.911c-14.262,6.951-44.728,9.383-76.004,11.031
		c-31.038,1.495-61.839,1.495-73.023,1.495c-13.672-0.191-30.62-8.013-45.268-15.521c-14.501-7.565-26.047-15.043-26.148-15.114
		h0.012c-2.81-1.813-3.565-5.498-1.688-8.221c1.17-1.711,3.102-2.638,5.069-2.638c1.161,0,2.334,0.322,3.372,0.995
		c0.03,0,11.203,7.265,25.125,14.529c13.605,7.207,30.4,14.111,39.174,14.111c0.119,0,0.236-0.001,0.353-0.004
		c0.833,0.001,1.774,0.002,2.816,0.002c12.902,0,41.234-0.112,69.604-1.474c30.397-1.306,61.882-4.805,70.971-9.702
		c22.858-11.657,33.122-20.82,41.943-30.333c5.344-5.883,7.332-11.271,8.105-18.6c-15.565,11.738-32.914,21.726-42.151,25.188
		c-12.311,4.081-36.013,4.271-49.335,4.371c-3.532,0-6.133-0.035-7.523-0.059v-11.851c1.273,0.019,3.914,0.053,7.523,0.053
		c0.641,0.005,1.313,0.007,2.012,0.007c13.033,0,35.604-0.882,43.24-3.695c12.143-3.768,55.836-32.661,63.736-47.675
		c4.771-8.326,6.855-15.378,6.843-20.715c-0.042-3.263-0.779-5.879-2.143-8.232c-8.157,8.396-18.896,19.262-30.711,30.195
		c-20.774,19.353-35.939,24.327-48.344,25.318c-4.131,0.352-10.045,0.45-16.298,0.45c-11.95,0-24.791-0.396-25.859-0.431v-11.82
		c0.063,0,0.123-0.029,0.189-0.029c0.029,0,13.471,0.425,25.67,0.425c6.07,0,11.89-0.123,15.22-0.414
		c9.947-0.966,21.182-3.917,41.027-22.1c20.127-18.605,37.184-37.147,43.543-43.351c0.773-0.516,2.772-4.767,2.631-8.736
		c-0.536-6.032-1.736-10.409-11.817-11.76c-1.023,2.484-2.396,4.863-4.358,6.961c-8.883,9.348-13.441,16.109-28.137,27.315
		c-14.069,10.617-28.133,22.833-47.417,23.011c-12.242-0.011-28.816-0.556-36.551-0.832V382.5c7.46,0.273,24.372,0.832,36.551,0.832
		c0.124,0.002,0.248,0.003,0.372,0.003c13.063,0,25.297-9.45,39.521-20.466c13.729-10.528,17.062-15.86,26.693-26.026
		c1.97-2.057,3.177-5.402,3.177-8.962c0.012-3.31-1.066-6.618-2.689-8.695c-1.677-2.095-3.339-3.073-6.066-3.143
		c-0.019,0-0.038,0-0.057,0c-2.637,0-6.851,1.253-12.427,5.701c-16.463,12.609-35.858,31.077-54.188,32.94
		c-3.713,0.255-11.911,0.706-22.03,1.233c-0.018,0.006-0.036,0.011-0.054,0.011c-0.005,0.001-0.011,0.002-0.016,0.002
		c-0.02,0-0.037-0.008-0.054-0.008c-25.924,1.354-64.326,3.214-72.705,3.618v-11.874c9.473-0.458,46.275-2.241,71.477-3.56
		c10.514-1.655,15.273-7.184,18.474-13.819c1.963-4.248,2.843-8.85,3.219-12.307c-19.449-0.457-78.968-1.822-93.175-1.822
		c-0.019,0-0.038,0-0.057,0c-15.178,0-27.1,6.939-41.327,15.855c-13.813,8.625-52.436,36.301-52.479,36.341
		c-1.09,0.782-2.357,1.161-3.612,1.161c-1.867,0-3.713-0.835-4.901-2.409c-2-2.654-1.428-6.357,1.285-8.302
		c0.066-0.042,38.511-27.621,53.129-36.766c14.171-8.856,28.639-17.718,47.962-17.742c17.499,0.012,105.579,1.98,105.622,1.98
		c-0.025,3.489-0.347,19.575-4.522,28.803c-1.091,2.479-2.565,4.98-4.396,7.371c10.838-2.519,29.917-17.899,44.638-29.896
		c7.009-5.561,13.76-8.341,20.193-8.364C844.048,304.192,844.106,304.192,844.163,304.192 M844.163,301.273l-0.188,0
		c-7.13,0.026-14.558,3.061-22.07,9.021c-9.753,7.948-24.66,20.096-35.644,26.06c0.019-0.041,0.037-0.083,0.055-0.123
		c4.287-9.476,4.731-25.306,4.765-29.932l0.021-2.878l-2.96-0.062l-0.586-0.013c-14.762-0.327-89.205-1.958-105.095-1.968
		c-20.496,0.025-35.95,9.683-49.585,18.204c-12.771,7.99-43.656,29.985-52.817,36.537l-0.447,0.319
		c-4.051,2.905-4.915,8.458-1.947,12.395c1.704,2.256,4.44,3.602,7.32,3.602c1.951,0,3.816-0.599,5.394-1.73
		c0.368-0.269,38.52-27.619,52.317-36.233c14.385-9.014,25.65-15.393,39.707-15.393h0.057c13.842,0,71.447,1.316,89.736,1.743
		c-0.461,2.538-1.23,5.487-2.517,8.271c-2.574,5.336-6.321,10.528-16.064,12.109c-24.849,1.299-60.841,3.045-71.298,3.551
		l-2.852,0.138v2.777v11.874v3.067l3.148-0.151c7.5-0.362,46.166-2.233,72.514-3.609c0.032,0.001,0.064,0.001,0.097,0.001
		c0.144-0.001,0.283-0.01,0.421-0.028c11.119-0.58,18.482-0.993,21.89-1.226l0.05-0.004l0.051-0.005
		c15.897-1.617,32.178-14.714,46.54-26.27c3.202-2.576,6.227-5.009,9.191-7.28l0.023-0.018l0.023-0.018
		c5.702-4.548,9.259-5.039,10.524-5.039h0.002c1.677,0.047,2.557,0.521,3.754,2.017c1.25,1.6,2.066,4.316,2.057,6.892
		c0,2.783-0.908,5.454-2.371,6.981c-2.491,2.628-4.515,4.881-6.473,7.06c-5.514,6.137-9.868,10.983-19.883,18.664
		c-13.752,10.649-25.618,19.839-37.665,19.839l-0.33-0.002c-12.44,0-29.654-0.581-36.479-0.831l-3.113-0.113v3.03v11.868v2.814
		l2.891,0.103c10.521,0.375,25.42,0.823,36.657,0.833c18.583-0.171,32.231-10.611,45.43-20.708c1.279-0.978,2.554-1.954,3.829-2.916
		c11.319-8.632,16.788-14.725,22.579-21.176c1.853-2.064,3.768-4.198,5.922-6.464c1.552-1.658,2.85-3.528,3.942-5.678
		c6.04,1.285,6.615,3.99,7.034,8.667c0.076,2.771-1.17,5.672-1.67,6.417l-0.089,0.087c-1.882,1.835-4.645,4.692-8.143,8.309
		c-8.415,8.702-21.133,21.853-35.343,34.987c-19.712,18.062-30.203,20.433-39.259,21.313c-2.893,0.252-8.343,0.399-14.922,0.399
		c-11.023,0-23.164-0.351-25.486-0.421c-0.119-0.004-0.181-0.004-0.184-0.004c-0.165,0-0.313,0.012-0.443,0.029h-2.746v2.919v11.82
		v2.822l2.899,0.095c0.132,0.005,13.534,0.433,25.96,0.433c7.597,0,12.858-0.146,16.559-0.462
		c16.73-1.337,32.204-9.392,50.158-26.116c10.538-9.753,20.296-19.535,27.502-26.899c0.173,0.895,0.264,1.844,0.276,2.864
		c0.009,3.609-1.105,9.909-6.463,19.257l-0.026,0.045l-0.023,0.046c-7.353,13.971-49.93,42.486-61.978,46.224l-0.076,0.024
		l-0.075,0.027c-6.248,2.302-25.947,3.506-42.178,3.506c-0.69,0-1.354-0.003-1.987-0.007c-3.847,0-6.6-0.039-7.504-0.053
		l-3.044-0.044v2.963v11.851v2.867l2.947,0.051c1.576,0.027,4.169,0.06,7.576,0.06c13.121-0.099,37.502-0.283,50.303-4.526
		l0.056-0.019l0.056-0.021c7.736-2.9,22.144-10.8,36.655-21.043c-1.177,3.606-3.041,6.609-5.937,9.797
		c-9.471,10.213-19.658,18.752-41.088,29.68l-0.031,0.016l-0.029,0.016c-7.656,4.126-35.646,7.88-69.65,9.341
		c-20.332,0.976-43.701,1.471-69.472,1.471l-2.813-0.002h-0.038l-0.037,0.001c-0.093,0.001-0.186,0.002-0.281,0.002
		c-7.04,0-22.207-5.528-37.739-13.755c-10.822-5.647-20.049-11.321-24.587-14.201c-0.301-0.19-0.593-0.375-0.938-0.505
		c0.22,0.078,0.432,0.183,0.629,0.312c-1.498-0.972-3.239-1.485-5.035-1.485c-3.053,0-5.882,1.474-7.567,3.94
		c-1.35,1.957-1.834,4.317-1.357,6.639c0.478,2.322,1.856,4.321,3.886,5.631c-0.028-0.019-0.063-0.037-0.094-0.057
		c0.516,0.34,11.889,7.704,26.471,15.312c15.099,7.739,32.429,15.667,46.643,15.866c0.17,0,0.346,0,0.523,0
		c11.924,0,42.037-0.021,72.691-1.498c36.308-1.914,63.323-4.574,77.199-11.338c25.322-12.816,37.589-24.162,46.255-33.572
		c11.25-11.982,12.474-25.114,12.483-37.62c6.877-6.294,11.943-12.104,15.069-17.281l0.019-0.032l0.019-0.033
		c5.87-10.316,8.732-19.437,8.751-27.882c0.054-6.049-1.617-11.821-4.854-16.825c1.06-1.082,2.008-2.04,2.704-2.713l0.036-0.035
		l0.035-0.036c4.427-4.586,6.849-11.159,7.005-19.011c0.315-5.825-1.752-11.913-5.679-16.713c-2.931-3.583-8.136-7.965-16.67-9.425
		c-0.666-4.977-2.461-9.507-5.254-13.217C858.071,304.703,851.286,301.273,844.163,301.273L844.163,301.273z"/>
</g>
<g>
	<path fill="#D82323" d="M562.074,617.187h-11.471c0.014,1.332,0.282,2.507,0.806,3.523c0.522,1.017,1.217,1.783,2.083,2.299
		s1.822,0.773,2.868,0.773c0.701,0,1.343-0.083,1.923-0.247c0.58-0.165,1.142-0.423,1.686-0.773
		c0.545-0.352,1.046-0.727,1.504-1.128s1.053-0.945,1.783-1.633c0.301-0.258,0.73-0.387,1.289-0.387c0.602,0,1.088,0.165,1.46,0.494
		c0.373,0.33,0.559,0.795,0.559,1.396c0,0.53-0.207,1.149-0.623,1.858c-0.415,0.708-1.041,1.389-1.879,2.04
		c-0.838,0.652-1.891,1.192-3.158,1.622s-2.725,0.645-4.371,0.645c-3.767,0-6.695-1.074-8.786-3.223
		c-2.091-2.147-3.136-5.062-3.136-8.742c0-1.732,0.258-3.341,0.773-4.823c0.516-1.481,1.267-2.753,2.255-3.813
		s2.205-1.872,3.652-2.438c1.446-0.565,3.05-0.848,4.812-0.848c2.291,0,4.257,0.482,5.896,1.449s2.868,2.217,3.685,3.749
		c0.815,1.532,1.224,3.093,1.224,4.683c0,1.476-0.422,2.431-1.267,2.868C564.794,616.969,563.606,617.187,562.074,617.187z
		 M550.603,613.858h10.633c-0.144-2.005-0.684-3.505-1.622-4.5c-0.938-0.995-2.173-1.493-3.705-1.493
		c-1.461,0-2.66,0.505-3.598,1.515C551.373,610.389,550.803,611.881,550.603,613.858z"/>
	<path fill="#D82323" d="M571.794,627.67c-0.888,0-1.654-0.287-2.299-0.859s-0.967-1.375-0.967-2.406
		c0-0.873,0.309-1.625,0.924-2.255c0.616-0.63,1.375-0.945,2.277-0.945s1.672,0.312,2.31,0.935c0.637,0.623,0.955,1.378,0.955,2.266
		c0,1.018-0.318,1.815-0.955,2.396C573.402,627.38,572.654,627.67,571.794,627.67z"/>
	<path fill="#D82323" d="M576.746,599.293l7.132,21.116l7.153-21.267c0.372-1.117,0.651-1.894,0.838-2.33
		c0.186-0.438,0.493-0.831,0.923-1.182s1.017-0.526,1.762-0.526c0.544,0,1.049,0.136,1.515,0.408
		c0.465,0.271,0.83,0.634,1.096,1.085c0.265,0.451,0.397,0.905,0.397,1.363c0,0.315-0.043,0.655-0.129,1.021
		s-0.193,0.724-0.322,1.074c-0.129,0.352-0.258,0.713-0.387,1.085l-7.626,20.579c-0.272,0.787-0.545,1.536-0.816,2.244
		c-0.272,0.709-0.587,1.332-0.945,1.869s-0.834,0.978-1.429,1.321c-0.594,0.344-1.32,0.516-2.18,0.516s-1.587-0.169-2.181-0.505
		c-0.595-0.336-1.074-0.78-1.439-1.332c-0.365-0.551-0.684-1.178-0.956-1.88c-0.271-0.701-0.544-1.446-0.815-2.233l-7.497-20.407
		c-0.129-0.372-0.262-0.737-0.397-1.096c-0.137-0.357-0.251-0.744-0.344-1.16c-0.094-0.415-0.14-0.766-0.14-1.053
		c0-0.73,0.293-1.396,0.881-1.997c0.587-0.602,1.324-0.902,2.212-0.902c1.089,0,1.858,0.333,2.31,0.999
		S576.273,597.833,576.746,599.293z"/>
	<path fill="#D82323" d="M596.083,627.67c-0.888,0-1.654-0.287-2.299-0.859s-0.967-1.375-0.967-2.406
		c0-0.873,0.309-1.625,0.924-2.255c0.616-0.63,1.375-0.945,2.277-0.945s1.672,0.312,2.31,0.935c0.637,0.623,0.955,1.378,0.955,2.266
		c0,1.018-0.318,1.815-0.955,2.396C597.69,627.38,596.942,627.67,596.083,627.67z"/>
</g>
</svg>
