<svg id="Ebene_1" data-name="Ebene 1" xmlns="http://www.w3.org/2000/svg" viewBox="0 0 600 182.0858"><path d="M495.50871,133.19881a1.2373,1.2373,0,0,0,1.22629,1.23042h1.66834a1.27748,1.27748,0,0,0,1.22629-1.23042V115.39723a11.29313,11.29313,0,0,1,7.92895-3.57447c3.79971,0,5.47226,2.28983,5.47226,7.2032v14.17285a1.24,1.24,0,0,0,1.22628,1.23042h1.67255a1.27742,1.27742,0,0,0,1.22622-1.23042V119.58068c0-6.64012-1.83936-11.48675-9.31785-11.48675a13.03307,13.03307,0,0,0-8.65468,3.2867l-.55478-1.952a.89142.89142,0,0,0-1.00519-.77995H496.735a1.27737,1.27737,0,0,0-1.22629,1.23042Zm-12.83809,0a1.24,1.24,0,0,0,1.22622,1.23042h1.67255a1.27747,1.27747,0,0,0,1.22628-1.23042V109.87909a1.32264,1.32264,0,0,0-1.22628-1.23042h-1.67255a1.28038,1.28038,0,0,0-1.22622,1.23042Zm1.952-31.19862a3.06612,3.06612,0,1,0-3.01136-3.00724,3.04528,3.04528,0,0,0,3.01136,3.00724M455.9307,119.197a8.44966,8.44966,0,0,1,8.32107-7.37421,7.55,7.55,0,0,1,7.53684,7.37421Zm-4.17927,2.33988c0,7.37,4.684,13.50549,12.50034,13.50549a15.83963,15.83963,0,0,0,9.43049-2.953c.94676-.72573.72573-1.001.22523-1.78514l-.67156-.951c-.66737-1.00518-1.05941-.78-1.952-.16684a11.95818,11.95818,0,0,1-6.97793,2.123c-4.68817,0-8.32106-4.52547-8.42951-8.82569H474.629a1.20541,1.20541,0,0,0,1.17206-1.11367,15.078,15.078,0,0,0,.10845-1.55993,11.32081,11.32081,0,0,0-11.65776-11.71615c-7.81637,0-12.50034,6.18967-12.50034,13.44292m-17.85994-9.322v15.69106c0,4.01664,1.00518,7.13647,5.91025,7.13647a13.36434,13.36434,0,0,0,7.25739-2.06042c.66736-.4463.78-.83838.44633-1.67255l-.5047-1.172c-.27945-.61314-.61314-1.11783-1.61832-.50052a9.05163,9.05163,0,0,1-5.08021,1.67255c-1.44732,0-2.28569-1.00519-2.28569-3.683V112.21481h7.59113a1.24618,1.24618,0,0,0,1.28045-1.22625v-1.11364a1.21584,1.21584,0,0,0-1.28045-1.22625h-7.59113v-7.25325a1.1541,1.1541,0,0,0-1.17206-1.22628l-1.72671.10845a1.32266,1.32266,0,0,0-1.22628,1.23042v7.14066H430.488a1.18965,1.18965,0,0,0-1.28464,1.22625v1.11364a1.21715,1.21715,0,0,0,1.28464,1.22625Zm-17.13422,22.82753c5.247,0,8.759-3.28667,8.759-7.3617,0-4.68813-3.8456-6.36485-8.31273-8.42945-3.1282-1.45148-4.91747-2.28986-4.91747-4.57968,0-1.22625.951-2.84875,3.7997-2.84875a10.15452,10.15452,0,0,1,5.30545,1.50988,1.25577,1.25577,0,0,0,1.78513-.4463l.55472-1.06358a1.22017,1.22017,0,0,0-.27946-1.72677,13.57851,13.57851,0,0,0-7.36584-2.00206c-5.97281,0-7.979,4.06665-7.979,6.74442,0,4.41284,3.904,6.2564,7.30754,7.92892,3.74128,1.84356,5.75585,2.84878,5.75585,5.30545,0,2.0104-1.78934,3.23665-4.41285,3.23665a10.49982,10.49982,0,0,1-6.41907-2.28986c-.72573-.50049-1.172-.27943-1.50568.33785l-.78,1.45148a.903.903,0,0,0,.16687,1.11367,12.64984,12.64984,0,0,0,8.53789,3.11983m-37.27984-1.84353a1.24,1.24,0,0,0,1.22628,1.23042h1.67255a1.27742,1.27742,0,0,0,1.22622-1.23042V115.39723a11.28145,11.28145,0,0,1,7.92895-3.57447c3.79557,0,5.47232,2.28983,5.47232,7.2032v14.17285a1.23724,1.23724,0,0,0,1.22622,1.23042h1.66841a1.27746,1.27746,0,0,0,1.22622-1.23042V119.58068c0-6.64012-1.83936-11.48675-9.31371-11.48675a13.02019,13.02019,0,0,0-8.65468,3.2867l-.55892-1.952a.88972.88972,0,0,0-1.001-.77995h-.8926a1.28043,1.28043,0,0,0-1.22628,1.23042ZM352.7376,119.197a8.44958,8.44958,0,0,1,8.321-7.37421,7.5501,7.5501,0,0,1,7.53691,7.37421Zm-4.1793,2.33988c0,7.37,4.684,13.50549,12.50027,13.50549a15.83943,15.83943,0,0,0,9.43049-2.953c.94683-.72573.72579-1.001.22524-1.78514l-.6715-.951c-.66737-1.00518-1.05941-.78-1.952-.16684a11.95825,11.95825,0,0,1-6.978,2.123c-4.6881,0-8.321-4.52547-8.42941-8.82569h18.75251A1.20542,1.20542,0,0,0,372.608,121.37a15.07789,15.07789,0,0,0,.10838-1.55993,11.32077,11.32077,0,0,0-11.65776-11.71615c-7.81631,0-12.50027,6.18967-12.50027,13.44292m-17.85994-9.322v15.69106c0,4.01664,1.00518,7.13647,5.91021,7.13647a13.36435,13.36435,0,0,0,7.25742-2.06042c.66737-.4463.78-.83838.4463-1.67255l-.50469-1.172c-.27942-.61314-.61311-1.11783-1.61829-.50052a9.05184,9.05184,0,0,1-5.08021,1.67255c-1.45149,0-2.28569-1.00519-2.28569-3.683V112.21481h7.5911a1.24621,1.24621,0,0,0,1.28051-1.22625v-1.11364a1.21587,1.21587,0,0,0-1.28051-1.22625h-7.5911v-7.25325a1.15409,1.15409,0,0,0-1.172-1.22628l-1.72677.10845a1.32265,1.32265,0,0,0-1.22625,1.23042v7.14066h-3.40349a1.18969,1.18969,0,0,0-1.28465,1.22625v1.11364a1.21719,1.21719,0,0,0,1.28465,1.22625Zm-31.478,20.984a1.24,1.24,0,0,0,1.22625,1.23042h1.67255a1.27747,1.27747,0,0,0,1.22625-1.23042v-17.689a11.0219,11.0219,0,0,1,7.929-3.68709c3.96654,0,5.418,2.84875,5.418,7.75792v13.61813a1.23726,1.23726,0,0,0,1.22625,1.23042h1.72677a1.27745,1.27745,0,0,0,1.22625-1.23042V119.58068c0-7.53271-2.8988-11.48675-9.31785-11.48675a11.74533,11.74533,0,0,0-8.20841,3.2867v-14.786a1.31873,1.31873,0,0,0-1.22625-1.22628h-1.67255a1.27671,1.27671,0,0,0-1.22625,1.22628ZM269.64,121.59525c0,7.76211,5.3513,13.44709,13.00079,13.44709a11.83037,11.83037,0,0,0,9.71-5.18446c.4463-.67153.22106-1.22625-.33369-1.78516l-.33785-.33786c-.72572-.72572-1.45148-.94679-2.17721-.10844-1.44731,1.67255-3.124,3.683-7.03222,3.683-4.79655,0-8.65051-4.30023-8.65051-9.76835,0-5.35964,3.90819-9.71826,8.82152-9.71826a8.022,8.022,0,0,1,6.4733,2.79452c.50053.55889,1.00522,1.11364,1.8394.38788l.89256-.83418a1.23455,1.23455,0,0,0,.22524-1.84356,12.00409,12.00409,0,0,0-9.37627-4.23349c-7.47849,0-13.055,5.91021-13.055,13.50132M244.57685,119.197a8.44224,8.44224,0,0,1,8.31686-7.37421,7.551,7.551,0,0,1,7.541,7.37421Zm-4.17928,2.33988c0,7.37,4.6798,13.50549,12.49614,13.50549a15.85448,15.85448,0,0,0,9.43466-2.953c.94679-.72573.72573-1.001.22107-1.78514l-.66737-.951c-.66733-1.00518-1.05941-.78-1.952-.16684a11.96908,11.96908,0,0,1-6.978,2.123c-4.6923,0-8.321-4.52547-8.43365-8.82569h18.75671A1.19859,1.19859,0,0,0,264.443,121.37a14.01064,14.01064,0,0,0,.11262-1.55993,11.32418,11.32418,0,0,0-11.66193-11.71615c-7.81634,0-12.49614,6.18967-12.49614,13.44292m-11.21983,11.662a1.24,1.24,0,0,0,1.22629,1.23042h1.67251a1.27748,1.27748,0,0,0,1.22629-1.23042V109.87909a1.32265,1.32265,0,0,0-1.22629-1.23042H230.404a1.28044,1.28044,0,0,0-1.22629,1.23042Zm1.952-31.19862a3.06612,3.06612,0,1,0-3.01141-3.00724,3.04527,3.04527,0,0,0,3.01141,3.00724m-26.89836,32.429h19.30309a1.05892,1.05892,0,0,0,1.06358-1.05944v-1.61412a1.05892,1.05892,0,0,0-1.06358-1.05944H207.46387V96.42783a1.09786,1.09786,0,0,0-1.05944-1.05944h-2.173a1.058,1.058,0,0,0-1.05941,1.05944" transform="translate(-5 -3.9571)" style="fill:#ee7d00"/><path d="M587.5321,59.007c.33369-2.57345,2.34405-4.47124,5.47226-4.47124a4.71751,4.71751,0,0,1,4.97176,4.47124Zm-7.3617,3.23248c0,7.37007,5.35133,13.50132,13.05919,13.50132a14.544,14.544,0,0,0,9.59737-3.5119,1.0845,1.0845,0,0,0,.10845-1.67255l-2.17311-2.903c-.38784-.55892-1.05941-.50053-1.67255,0a8.5306,8.5306,0,0,1-5.52648,1.90195,6.20344,6.20344,0,0,1-6.42321-5.98115h16.52107a1.30415,1.30415,0,0,0,1.22628-1.16785A16.17251,16.17251,0,0,0,605,60.73379,11.55117,11.55117,0,0,0,593.17123,48.7924c-7.6495,0-13.00083,6.18967-13.00083,13.44709M569.8974,44.9343a4.43877,4.43877,0,0,0,4.46293-4.46293,4.39242,4.39242,0,0,0-4.46293-4.40451,4.34557,4.34557,0,0,0-4.40451,4.40451A4.39212,4.39212,0,0,0,569.8974,44.9343Zm-3.39933,28.96715a1.27673,1.27673,0,0,0,1.22628,1.22625h4.5171a1.27673,1.27673,0,0,0,1.22628-1.22625V50.57757a1.23549,1.23549,0,0,0-1.22628-1.22625h-4.5171a1.23549,1.23549,0,0,0-1.22628,1.22625Zm-15.29065,0a1.27673,1.27673,0,0,0,1.22628,1.22625h4.51709a1.27673,1.27673,0,0,0,1.22628-1.22625V37.29731a1.31929,1.31929,0,0,0-1.22628-1.23045H552.4337a1.31929,1.31929,0,0,0-1.22628,1.23045ZM539.31609,44.9343a4.43785,4.43785,0,0,0,4.45873-4.46293,4.39144,4.39144,0,0,0-4.45873-4.40451,4.343,4.343,0,0,0-4.40451,4.40451A4.3895,4.3895,0,0,0,539.31609,44.9343Zm-3.40346,28.96715A1.27738,1.27738,0,0,0,537.143,75.1277h4.513a1.27668,1.27668,0,0,0,1.22622-1.22625V50.57757a1.23544,1.23544,0,0,0-1.22622-1.22625h-4.513a1.23628,1.23628,0,0,0-1.23041,1.22625Zm-47.32349,0a1.27674,1.27674,0,0,0,1.22629,1.22625h4.51295a1.27668,1.27668,0,0,0,1.22622-1.22625V59.16552c.61734-1.78517,1.78934-4.01661,4.97176-4.01661,3.29508,0,4.246,2.06463,4.246,5.41387V73.90145a1.20212,1.20212,0,0,0,1.22622,1.22625H510.57a1.27673,1.27673,0,0,0,1.22628-1.22625V60.28335c0-1.17206-.10845-2.4567-.10845-2.4567s1.05941-2.67774,4.80075-2.67774c3.24079,0,4.46707,2.06463,4.46707,5.41387V73.90145a1.24,1.24,0,0,0,1.23042,1.22625h4.45873a1.24882,1.24882,0,0,0,1.28045-1.22625V60.72962c0-6.69851-1.94781-11.93722-10.20625-11.93722a10.99209,10.99209,0,0,0-8.31686,3.904c-2.11882-2.56514-3.96238-3.904-7.69958-3.904a9.8082,9.8082,0,0,0-7.87473,3.73717l-.94676-2.4567a1.00048,1.00048,0,0,0-1.05941-.72155h-2.00623a1.2355,1.2355,0,0,0-1.22629,1.22625Zm-23.11529-6.978c0-2.28566,1.62246-3.68292,4.57965-3.68292a10.31222,10.31222,0,0,1,3.79977.77995v3.79557a5.52978,5.52978,0,0,1-4.63814,2.74446,3.40872,3.40872,0,0,1-3.74128-3.63289Zm-6.6902.00417c0,5.52651,3.57033,8.81318,8.70057,8.81318A11.27257,11.27257,0,0,0,475.58,72.50836l.72579,1.73091c.33368.72159.6715.88843,1.11777.88843h1.89365a1.23914,1.23914,0,0,0,1.22621-1.22625V60.00806c0-7.03639-1.67255-11.21566-9.70575-11.21566a32.71379,32.71379,0,0,0-8.82155,1.28047,1.1783,1.1783,0,0,0-.83418,1.5641l.55892,2.8988c.10845.78.61314,1.39726,1.44732,1.11784a32.047,32.047,0,0,1,7.25745-.951c2.73609,0,3.687,1.56411,3.57447,4.85915a19.0276,19.0276,0,0,0-4.97176-.72156c-6.52753,0-10.26467,3.50774-10.26467,8.08326Zm-24.77958,7.14063a1.05807,1.05807,0,0,0,1.05948,1.05944h5.13023a1.09485,1.09485,0,0,0,1.05941-1.05944V59.94967h13.785a1.09789,1.09789,0,0,0,1.05941-1.05944V54.31471a1.09415,1.09415,0,0,0-1.05941-1.05524h-13.785V42.75706h16.52107a1.058,1.058,0,0,0,1.05941-1.05941V37.1263a1.058,1.058,0,0,0-1.05941-1.05944H435.06355a1.05807,1.05807,0,0,0-1.05948,1.05944Zm-27.96193-.16681a1.23916,1.23916,0,0,0,1.22628,1.22625H408.941a1.27672,1.27672,0,0,0,1.22622-1.22625V62.18527l11.77454,12.44191a2.25745,2.25745,0,0,0,1.28465.50052h3.18242a.92392.92392,0,0,0,.66737-1.61832L414.29644,60.788l11.88713-9.87676a.88665.88665,0,0,0-.61308-1.55993h-3.12407a2.45207,2.45207,0,0,0-1.5641.77995l-10.71513,8.98419V37.29731a1.31929,1.31929,0,0,0-1.22622-1.23045h-1.67255a1.27744,1.27744,0,0,0-1.22628,1.23045Zm-20.42509,0a1.23916,1.23916,0,0,0,1.22628,1.22625h1.67255a1.27668,1.27668,0,0,0,1.22622-1.22625v-17.86a8.13625,8.13625,0,0,1,6.97385-3.295,6.46731,6.46731,0,0,1,2.79032.72576.97828.97828,0,0,0,1.50988-.61314l.72579-2.0062c.61308-1.781-2.56935-2.06046-4.52136-2.06046a10.26528,10.26528,0,0,0-7.92475,3.28671l-.44627-1.8394a1.11416,1.11416,0,0,0-1.11363-.88839h-.8926a1.2767,1.2767,0,0,0-1.22628,1.22625ZM358.87719,59.89961a8.44963,8.44963,0,0,1,8.321-7.37421,7.54734,7.54734,0,0,1,7.53691,7.37421Zm-4.17927,2.33988c0,7.37007,4.684,13.50132,12.50027,13.50132a15.87109,15.87109,0,0,0,9.43049-2.94885c.94683-.72573.72579-1.00519.22524-1.7893l-.6715-.94683c-.66737-1.00518-1.05941-.78412-1.952-.16684a11.98857,11.98857,0,0,1-6.978,2.123c-4.6881,0-8.321-4.52546-8.42944-8.82569h18.75254a1.2054,1.2054,0,0,0,1.17205-1.11367,15.07494,15.07494,0,0,0,.10839-1.55993A11.32418,11.32418,0,0,0,367.19819,48.7924c-7.81631,0-12.50027,6.18967-12.50027,13.44709M332.70459,55.712l7.75794,19.36148a1.24131,1.24131,0,0,0,1.11781.66733h.33368a1.05984,1.05984,0,0,0,1.05941-.66733l7.03218-24.27068c.27946-.83838,0-1.45148-.89256-1.45148h-1.952a1.038,1.038,0,0,0-1.05941.72572L341.3551,67.65339h-.10845l-7.20319-18.24785a1.10642,1.10642,0,0,0-1.05944-.61314h-.33365a1.09379,1.09379,0,0,0-1.11784.61314L324.27928,67.595h-.11262L319.4243,50.077a1.09752,1.09752,0,0,0-1.172-.72572h-1.89779c-1.00518,0-1.23041.6131-1.00518,1.45148l7.14063,24.27068a1.1,1.1,0,0,0,1.11784.66733h.33365a1.04021,1.04021,0,0,0,1.06361-.66733L332.592,55.712ZM292.1297,73.90145a1.23726,1.23726,0,0,0,1.23042,1.22625h15.40327a1.16846,1.16846,0,0,0,1.22628-1.22625V72.84618a1.11566,1.11566,0,0,0-1.22628-1.22625H297.98986v-.16684L311.1617,51.13231a1.07254,1.07254,0,0,0,.22523-.66736,1.01763,1.01763,0,0,0-1.17206-1.11363H293.86064a1.10575,1.10575,0,0,0-1.05941,1.22625v1.05524a1.137,1.137,0,0,0,1.05941,1.22625h11.66613v.16684L292.46755,72.78779a1.65844,1.65844,0,0,0-.33785,1.00522Zm-17.23846-20.984v15.6869c0,4.01663,1.001,7.13646,5.906,7.13646a13.3645,13.3645,0,0,0,7.25742-2.06042c.66733-.4463.77995-.83421.4463-1.66838l-.5047-1.1762c-.27946-.61314-.61314-1.11366-1.61832-.50052a9.01476,9.01476,0,0,1-5.076,1.67672c-1.45149,0-2.28983-1.00519-2.28983-3.68712V52.91745h7.5911a1.25252,1.25252,0,0,0,1.28464-1.22625V50.57757a1.21693,1.21693,0,0,0-1.28464-1.22625h-7.5911V42.09389a1.15793,1.15793,0,0,0-1.16786-1.22628l-1.73094.11262a1.31478,1.31478,0,0,0-1.22208,1.22625v7.14484h-3.40766a1.18407,1.18407,0,0,0-1.28048,1.22625V51.6912a1.216,1.216,0,0,0,1.28048,1.22625Zm-28.41661,6.98216a8.44642,8.44642,0,0,1,8.321-7.37421,7.54732,7.54732,0,0,1,7.53688,7.37421Zm-4.17927,2.33988c0,7.37007,4.684,13.50132,12.5003,13.50132a15.871,15.871,0,0,0,9.43046-2.94885c.94683-.72573.72576-1.00519.22524-1.7893l-.6715-.94683c-.66737-1.00518-1.05941-.78412-1.952-.16684a11.98863,11.98863,0,0,1-6.978,2.123c-4.68814,0-8.321-4.52546-8.42948-8.82569H265.173a1.20538,1.20538,0,0,0,1.172-1.11367,15.07506,15.07506,0,0,0,.10845-1.55993A11.32661,11.32661,0,0,0,254.79566,48.7924c-7.81634,0-12.5003,6.18967-12.5003,13.44709M203.172,74.06826a1.09485,1.09485,0,0,0,1.05941,1.05944h1.94781a1.058,1.058,0,0,0,1.05944-1.05944V43.71219h.05839l25.28421,31.52813a.95983.95983,0,0,0,.8926.44627h.44626a1.05058,1.05058,0,0,0,1.05944-1.00518V37.1263a1.10088,1.10088,0,0,0-1.05944-1.05944h-1.952a1.06066,1.06066,0,0,0-1.05944,1.05944V66.86924h-.10845l-24.84207-30.915a.95979.95979,0,0,0-.8926-.4463h-.83418a1.04782,1.04782,0,0,0-1.05941,1.00518Z" transform="translate(-5 -3.9571)" style="fill:#ee7d00"/><path d="M171.99769,79.64177c-3.38737-4.561-14.83271-13.82538-47.95143-1.68279.67779-.43214,1.40486-.89044,2.16584-1.36981,12.47982-7.86006,35.70181-22.48752,33.267-39.12479-.53691-3.6615-2.31545-6.14857-5.28718-7.3902-4.702-1.9663-12.15549-.27653-20.29814,3.05141,1.741-10.10232,1.98055-19.04191-1.10809-24.23462a9.34776,9.34776,0,0,0-6.32-4.57132,21.12584,21.12584,0,0,0-2.58394-.33928,24.056,24.056,0,0,0-5.17169.399C103.49092,7.197,90.64707,18.53253,81.25194,37.27168a24.7102,24.7102,0,0,0-3.77516-.45646c-2.3677-.14538-7.2709.48474-13.24792,2.78905A57.10906,57.10906,0,0,0,44.43725,52.63961a67.7881,67.7881,0,0,0-14.2762,21.746c-9.37123.072-17.96442,1.23627-22.19745,4.63422a7.33672,7.33672,0,0,0-2.9233,6.67433c.57372,5.7849,6.28874,13.46551,17.6996,20.3384a167.975,167.975,0,0,0-.16379,26.50832c.01869.261.46986,6.45429,3.024,10.76833a21.82523,21.82523,0,0,0,19.60526,11.20463,34.45735,34.45735,0,0,0,11.14117-2.00973A214.47655,214.47655,0,0,0,78.29628,141.995a150.34759,150.34759,0,0,0,5.8272,19.04353c2.20736,5.77573,10.01884,24.65385,17.71109,24.99687.07826.00373.16033.00747.23859.00747a5.22044,5.22044,0,0,0,3.72123-1.65924c4.752-4.69415,6.80089-20.26845,7.62569-35.7855a33.20326,33.20326,0,0,0,6.48573.66086c7.68851,0,15.76848-2.59142,24.12808-7.75183,6.98753-4.25813,17.57691-15.80577,16.25321-28.67331-.062-.6034-.17105-1.19686-.2809-1.79018a34.23379,34.23379,0,0,0,9.87733-8.63852C175.71517,94.70179,176.54292,85.768,171.99769,79.64177ZM153.03975,32.83341c1.965.82035,3.10224,2.47585,3.48256,5.06353C158.67376,52.61021,135.67168,67.096,124.62,74.0574c-.669.42107-1.27949.806-1.85511,1.17119.68695-2.40824,1.49221-5.10682,2.33237-7.92083,2.81218-9.42137,6.11205-20.47751,8.1473-30.68446C141.49831,33.01376,148.84437,31.07856,153.03975,32.83341ZM119.25439,7.32128a20.53979,20.53979,0,0,1,4.4595-.358,18.16828,18.16828,0,0,1,2.13651.28337,6.37906,6.37906,0,0,1,4.36629,3.1731c2.84841,4.79,2.30939,13.90448.37594,24.11877-14.89532,6.70748-31.115,17.85238-36.80792,21.8942.19784-1.37644.97441-8.55222-3.33224-13.90893A14.29266,14.29266,0,0,0,84.219,38.12517C91.477,23.8145,102.58723,10.40525,119.25439,7.32128ZM8.01577,85.39585a4.31243,4.31243,0,0,1,1.81958-4.04563c3.02976-2.433,9.67483-3.7827,19.13-3.96919a106.59071,106.59071,0,0,0-5.87824,25.256C14.31854,97.08437,8.54789,90.74839,8.01577,85.39585Zm47.36128,64.28191c-11.90554,4.08285-21.82,1.20807-27.20423-7.88981-2.18868-3.69887-2.61-9.39252-2.61377-9.45217a166.62472,166.62472,0,0,1,.03378-24.67077A97.31071,97.31071,0,0,0,39.0754,113.6739c7.69965,2.78905,16.54405,4.84355,24.27353,4.84355a27.52908,27.52908,0,0,0,11.3278-2.09441,130.627,130.627,0,0,0,2.93867,22.55577C67.88253,144.28912,58.90861,148.46659,55.37705,149.67776Zm48.31439,32.57687a2.18263,2.18263,0,0,1-1.71889.79419c-5.27724-.23387-15.656-19.46234-21.00553-42.50729,3.32814-1.83438,6.72292-3.79582,10.01094-5.82607,4.64155,5.27421,10.72236,10.26985,18.3348,12.81719.3598.12057.72509.20849,1.087.31644C109.60177,163.40422,107.71161,178.28635,103.69144,182.25463Zm6.851-37.472c-.08884-.02877-.179-.05041-.26764-.08-6.93-2.31707-12.51642-6.96546-16.69424-11.62407,7.20589-4.6192,13.624-9.49984,17.26781-13.9769C110.96453,126.22867,110.93463,135.4983,110.5424,144.78267Zm46.773-31.64307c1.182,11.4992-8.47149,21.93566-14.84378,25.81721-10.24369,6.3247-19.94793,8.53932-28.90634,6.6319.58895-13.54335.31249-26.4938.16336-31.51567a7.5579,7.5579,0,0,0,.20321-.87267,6.78826,6.78826,0,0,0,.074-.75978,66.377,66.377,0,0,0,23.15889,4.51379,45.50754,45.50754,0,0,0,20.05657-4.39576C157.24754,112.753,157.29527,112.94436,157.31537,113.1396ZM167.501,100.60055a30.90043,30.90043,0,0,1-8.2561,7.42489C155.70428,97.399,144.054,88.50732,124.50322,81.543l-1.003,2.81887c18.71222,6.66369,30.01421,15.3178,33.05568,25.18738-9.81564,5.02123-24.10763,6.721-42.02425-.09688l-.61778,1.62589a6.30723,6.30723,0,0,0-2.54369-3.9295l-1.8121,2.38265a3.08356,3.08356,0,0,1,1.43757,3.02729l-.30931.01121c.01241.35049.024.73123.03574,1.10576-1.62229,4.70776-9.60574,11.03083-19.11143,17.08753-.88274-1.09582-1.691-2.17211-2.41028-3.19369a66.82889,66.82889,0,0,1-7.00988-12.573l-2.78531,1.08877a69.31658,69.31658,0,0,0,9.6204,16.29714c-2.86,1.76007-5.80675,3.47945-8.73032,5.11557a121.50436,121.50436,0,0,1-2.66975-22.79881,13.38893,13.38893,0,0,0,1.31284-1.11845l-2.09921-2.129a10.74218,10.74218,0,0,1-1.98949,1.49538l-.238-.00056c-.00015.04844.002.099.0019.1475-6.74033,3.86921-19.76905,3.10915-34.52025-2.23148a90.952,90.952,0,0,1-14.18842-6.52733,103.58015,103.58015,0,0,1,6.265-26.9772q3.99985.02835,8.5573.30467c12.64008.77924,24.28467,2.74427,25.83949,3.25509l.93217-2.84122a206.57338,206.57338,0,0,0-34.10115-3.6768,64.3647,64.3647,0,0,1,13.161-19.65342C59.69857,41.53948,74.14335,39.60053,77.31645,39.8019a22.44666,22.44666,0,0,1,2.56561.2711c-.58888,1.26638-1.166,2.55743-1.72482,3.886a147.94674,147.94674,0,0,0-9.39619,33.4907l2.96426.39153A143.6056,143.6056,0,0,1,82.89708,40.82714a11.454,11.454,0,0,1,5.21,3.55356c3.83685,4.75027,2.707,11.708,2.69584,11.77877l2.70556.46922c-.97384.69344-1.60735,1.15533-1.79765,1.29479L93.482,60.336C100.91452,54.87927,116.18374,44.68,129.8588,38.169c-2.06889,9.65869-5.13405,19.93777-7.6252,28.28489-1.17077,3.91511-2.27442,7.61765-3.091,10.63782l.56173.15166a12.78424,12.78424,0,0,0-1.49017,1.184l2.08807,2.14025a28.10956,28.10956,0,0,1,3.39689-2.38631l1.00437,2.71705c21.8648-8.0837,38.64745-7.88607,44.893.52571C173.33253,86.45776,172.50851,93.9822,167.501,100.60055Z" transform="translate(-5 -3.9571)" style="fill:#868686"/><path d="M76.60913,79.57354A9.53417,9.53417,0,1,1,67.075,70.03938a9.5351,9.5351,0,0,1,9.53417,9.53416" transform="translate(-5 -3.9571)" style="fill:#a9c810"/><path d="M105.11691,57.79414A9.53417,9.53417,0,1,1,95.58274,48.26a9.5351,9.5351,0,0,1,9.53417,9.53416" transform="translate(-5 -3.9571)" style="fill:#f6a723"/><path d="M133.72946,79.57354a9.53417,9.53417,0,1,1-9.53418-9.53416,9.5351,9.5351,0,0,1,9.53418,9.53416" transform="translate(-5 -3.9571)" style="fill:#e74130"/><path d="M87.42371,112.49081a9.53416,9.53416,0,1,1-9.53417-9.53415,9.53509,9.53509,0,0,1,9.53417,9.53415" transform="translate(-5 -3.9571)" style="fill:#ee7d00"/><path d="M122.84366,112.49118a9.53417,9.53417,0,1,1-9.53419-9.53415,9.53511,9.53511,0,0,1,9.53419,9.53415" transform="translate(-5 -3.9571)" style="fill:#fcc319"/></svg>